<?xml version="1.0" encoding="UTF-8"?>
<!DOCTYPE svg PUBLIC "-//W3C//DTD SVG 1.1//EN" "http://www.w3.org/Graphics/SVG/1.1/DTD/svg11.dtd">
<!-- Creator: CorelDRAW 2021 (64-Bit) -->
<svg xmlns="http://www.w3.org/2000/svg" xml:space="preserve" width="34.687mm" height="11.7795mm" version="1.1" style="shape-rendering:geometricPrecision; text-rendering:geometricPrecision; image-rendering:optimizeQuality; fill-rule:evenodd; clip-rule:evenodd"
viewBox="0 0 5537.7 1880.57"
 xmlns:xlink="http://www.w3.org/1999/xlink"
 xmlns:xodm="http://www.corel.com/coreldraw/odm/2003">
 <defs>
  <style type="text/css">
   <![CDATA[
    .fil1 {fill:#21BDC3;fill-rule:nonzero}
    .fil0 {fill:black;fill-rule:nonzero}
   ]]>
  </style>
 </defs>
 <g id="Layer_x0020_1">
  <metadata id="CorelCorpID_0Corel-Layer"/>
  <g id="_2436796004288">
   <g>
    <polygon class="fil0" points="4396.41,2.68 3224.09,2.68 3224.09,1880.57 4420.57,1880.57 4420.57,1432.57 3715.02,1432.57 3715.02,1126.73 4342.77,1126.73 4342.77,697.5 3715.02,697.5 3715.02,429.23 4396.41,429.23 "/>
    <polygon class="fil0" points="4858.99,2.68 4368.06,2.68 4368.06,1880.57 5537.7,1880.57 5537.7,1440.61 4858.99,1440.61 "/>
    <polygon class="fil0" points="2735.41,2.54 278.17,2.54 278.17,429.12 2016.38,429.12 1259.81,1810.82 1259.81,1880.57 2831.93,1880.57 2831.93,1482.98 1981.5,1482.98 2735.41,74.99 "/>
    <path class="fil0" d="M490.93 1880.57l0 -488.25 338.02 0c445.32,0 673.35,-343.39 673.35,-685.43 8.05,-352.77 -222.66,-704.21 -673.35,-704.21 -279,-2.68 -549.95,0 -828.96,0l0 1877.89 490.93 0zm-8.05 -914.8l0 -536.54 346.07 0c134.14,0 203.89,130.56 203.89,264.25 0,136.37 -75.13,272.3 -203.89,272.3l-346.07 0z"/>
    <polygon class="fil1" points="3252.44,1483.5 3252.44,399.61 3469.75,399.61 3469.75,2.54 2544.15,2.54 2544.15,399.61 2761.48,399.61 2761.48,1483.5 2522.71,1483.5 2522.71,1880.57 3491.23,1880.57 3491.23,1483.5 "/>
   </g>
  </g>
 </g>
</svg>
